<svg width="130" height="132" viewBox="0 0 130 132" fill="none" xmlns="http://www.w3.org/2000/svg">
<path d="M0.698864 71.2102V70.3409L4.53409 64.2727H5.16477V65.6193H4.73864L1.84091 70.2045V70.2727H7.00568V71.2102H0.698864ZM4.80682 73V70.946V70.5412V64.2727H5.8125V73H4.80682Z" fill="black"/>
<path d="M10.6307 43.1193C10.1307 43.1193 9.6804 43.0199 9.27983 42.821C8.87926 42.6222 8.55824 42.3494 8.31676 42.0028C8.07528 41.6562 7.94318 41.2614 7.92045 40.8182H8.94318C8.98295 41.2131 9.16193 41.5398 9.48011 41.7983C9.80114 42.054 10.1847 42.1818 10.6307 42.1818C10.9886 42.1818 11.3068 42.098 11.5852 41.9304C11.8665 41.7628 12.0866 41.5327 12.2457 41.2401C12.4077 40.9446 12.4886 40.6108 12.4886 40.2386C12.4886 39.858 12.4048 39.5185 12.2372 39.2202C12.0724 38.919 11.8452 38.6818 11.5554 38.5085C11.2656 38.3352 10.9347 38.2472 10.5625 38.2443C10.2955 38.2415 10.0213 38.2827 9.74006 38.3679C9.45881 38.4503 9.22727 38.5568 9.04545 38.6875L8.05682 38.5682L8.58523 34.2727H13.1193V35.2102H9.47159L9.16477 37.7841H9.21591C9.39489 37.642 9.61932 37.5241 9.8892 37.4304C10.1591 37.3366 10.4403 37.2898 10.733 37.2898C11.267 37.2898 11.7429 37.4176 12.1605 37.6733C12.581 37.9261 12.9105 38.2727 13.1491 38.7131C13.3906 39.1534 13.5114 39.6562 13.5114 40.2216C13.5114 40.7784 13.3864 41.2756 13.1364 41.7131C12.8892 42.1477 12.5483 42.4915 12.1136 42.7443C11.679 42.9943 11.1847 43.1193 10.6307 43.1193Z" fill="black"/>
<path d="M25.8011 24.1193C25.4432 24.1136 25.0852 24.0455 24.7273 23.9148C24.3693 23.7841 24.0426 23.5639 23.7472 23.2543C23.4517 22.9418 23.2145 22.5199 23.0355 21.9886C22.8565 21.4545 22.767 20.7841 22.767 19.9773C22.767 19.2045 22.8395 18.5199 22.9844 17.9233C23.1293 17.3239 23.3395 16.8196 23.6151 16.4105C23.8906 15.9986 24.223 15.6861 24.6122 15.473C25.0043 15.2599 25.446 15.1534 25.9375 15.1534C26.4261 15.1534 26.8608 15.2514 27.2415 15.4474C27.625 15.6406 27.9375 15.9105 28.179 16.2571C28.4205 16.6037 28.5767 17.0028 28.6477 17.4545H27.608C27.5114 17.0625 27.3239 16.7372 27.0455 16.4787C26.767 16.2202 26.3977 16.0909 25.9375 16.0909C25.2614 16.0909 24.7287 16.3849 24.3395 16.973C23.9531 17.5611 23.7585 18.3864 23.7557 19.4489H23.8239C23.983 19.2074 24.1719 19.0014 24.3906 18.831C24.6122 18.6577 24.8565 18.5241 25.1236 18.4304C25.3906 18.3366 25.6733 18.2898 25.9716 18.2898C26.4716 18.2898 26.929 18.4148 27.3438 18.6648C27.7585 18.9119 28.0909 19.2543 28.3409 19.6918C28.5909 20.1264 28.7159 20.625 28.7159 21.1875C28.7159 21.7273 28.5952 22.2216 28.3537 22.6705C28.1122 23.1165 27.7727 23.4716 27.3352 23.7358C26.9006 23.9972 26.3892 24.125 25.8011 24.1193ZM25.8011 23.1818C26.1591 23.1818 26.4801 23.0923 26.7642 22.9134C27.0511 22.7344 27.277 22.4943 27.4418 22.1932C27.6094 21.892 27.6932 21.5568 27.6932 21.1875C27.6932 20.8267 27.6122 20.4986 27.4503 20.2031C27.2912 19.9048 27.071 19.6676 26.7898 19.4915C26.5114 19.3153 26.1932 19.2273 25.8352 19.2273C25.5653 19.2273 25.3139 19.2812 25.081 19.3892C24.848 19.4943 24.6435 19.6392 24.4673 19.8239C24.294 20.0085 24.1577 20.2202 24.0582 20.4588C23.9588 20.6946 23.9091 20.9432 23.9091 21.2045C23.9091 21.5511 23.9901 21.875 24.152 22.1761C24.3168 22.4773 24.5412 22.7202 24.8253 22.9048C25.1122 23.0895 25.4375 23.1818 25.8011 23.1818Z" fill="black"/>
<path d="M59.1761 12L63.0795 4.27841V4.21023H58.5795V3.27273H64.1705V4.26136L60.2841 12H59.1761Z" fill="black"/>
<path d="M99.6989 26.1193C99.1136 26.1193 98.5966 26.0156 98.1477 25.8082C97.7017 25.598 97.3537 25.3097 97.1037 24.9432C96.8537 24.5739 96.7301 24.1534 96.733 23.6818C96.7301 23.3125 96.8026 22.9716 96.9503 22.6591C97.098 22.3437 97.2997 22.081 97.5554 21.8707C97.8139 21.6577 98.1023 21.5227 98.4205 21.4659V21.4148C98.0028 21.3068 97.6705 21.0724 97.4233 20.7116C97.1761 20.348 97.054 19.9347 97.0568 19.4716C97.054 19.0284 97.1662 18.6321 97.3935 18.2827C97.6207 17.9332 97.9332 17.6577 98.331 17.456C98.7315 17.2543 99.1875 17.1534 99.6989 17.1534C100.205 17.1534 100.656 17.2543 101.054 17.456C101.452 17.6577 101.764 17.9332 101.991 18.2827C102.222 18.6321 102.338 19.0284 102.341 19.4716C102.338 19.9347 102.212 20.348 101.962 20.7116C101.714 21.0724 101.386 21.3068 100.977 21.4148V21.4659C101.293 21.5227 101.577 21.6577 101.83 21.8707C102.082 22.081 102.284 22.3437 102.435 22.6591C102.585 22.9716 102.662 23.3125 102.665 23.6818C102.662 24.1534 102.534 24.5739 102.281 24.9432C102.031 25.3097 101.683 25.598 101.237 25.8082C100.794 26.0156 100.281 26.1193 99.6989 26.1193ZM99.6989 25.1818C100.094 25.1818 100.435 25.1179 100.722 24.9901C101.009 24.8622 101.23 24.6818 101.386 24.4489C101.543 24.2159 101.622 23.9432 101.625 23.6307C101.622 23.3011 101.537 23.0099 101.369 22.7571C101.202 22.5043 100.973 22.3054 100.683 22.1605C100.396 22.0156 100.068 21.9432 99.6989 21.9432C99.3267 21.9432 98.9943 22.0156 98.7017 22.1605C98.4119 22.3054 98.1832 22.5043 98.0156 22.7571C97.8509 23.0099 97.7699 23.3011 97.7727 23.6307C97.7699 23.9432 97.8452 24.2159 97.9986 24.4489C98.1548 24.6818 98.3778 24.8622 98.6676 24.9901C98.9574 25.1179 99.3011 25.1818 99.6989 25.1818ZM99.6989 21.0398C100.011 21.0398 100.288 20.9773 100.53 20.8523C100.774 20.7273 100.966 20.5526 101.105 20.3281C101.244 20.1037 101.315 19.8409 101.318 19.5398C101.315 19.2443 101.246 18.9872 101.109 18.7685C100.973 18.5469 100.784 18.3764 100.543 18.2571C100.301 18.1349 100.02 18.0739 99.6989 18.0739C99.3722 18.0739 99.0866 18.1349 98.8423 18.2571C98.598 18.3764 98.4091 18.5469 98.2756 18.7685C98.142 18.9872 98.0767 19.2443 98.0795 19.5398C98.0767 19.8409 98.1435 20.1037 98.2798 20.3281C98.419 20.5526 98.6108 20.7273 98.8551 20.8523C99.0994 20.9773 99.3807 21.0398 99.6989 21.0398Z" fill="black"/>
<path d="M114.682 38.1534C115.04 38.1562 115.398 38.2244 115.756 38.358C116.114 38.4915 116.44 38.7131 116.736 39.0227C117.031 39.3295 117.268 39.7486 117.447 40.2798C117.626 40.8111 117.716 41.4773 117.716 42.2784C117.716 43.054 117.642 43.7429 117.494 44.3452C117.349 44.9446 117.139 45.4503 116.864 45.8622C116.591 46.2741 116.259 46.5866 115.866 46.7997C115.477 47.0128 115.037 47.1193 114.545 47.1193C114.057 47.1193 113.621 47.0227 113.237 46.8295C112.857 46.6335 112.544 46.3622 112.3 46.0156C112.058 45.6662 111.903 45.2614 111.835 44.8011H112.875C112.969 45.2017 113.155 45.5327 113.433 45.794C113.714 46.0526 114.085 46.1818 114.545 46.1818C115.219 46.1818 115.75 45.8878 116.139 45.2997C116.531 44.7116 116.727 43.8807 116.727 42.8068H116.659C116.5 43.0455 116.311 43.2514 116.092 43.4247C115.874 43.598 115.631 43.7315 115.364 43.8253C115.097 43.919 114.813 43.9659 114.511 43.9659C114.011 43.9659 113.553 43.8423 113.135 43.5952C112.72 43.3452 112.388 43.0028 112.138 42.5682C111.891 42.1307 111.767 41.6307 111.767 41.0682C111.767 40.5341 111.886 40.0455 112.125 39.6023C112.366 39.1562 112.705 38.8011 113.139 38.5369C113.577 38.2727 114.091 38.1449 114.682 38.1534ZM114.682 39.0909C114.324 39.0909 114.001 39.1804 113.714 39.3594C113.43 39.5355 113.205 39.7741 113.037 40.0753C112.872 40.3736 112.79 40.7045 112.79 41.0682C112.79 41.4318 112.869 41.7628 113.028 42.0611C113.19 42.3565 113.411 42.5923 113.689 42.7685C113.97 42.9418 114.29 43.0284 114.648 43.0284C114.918 43.0284 115.169 42.9759 115.402 42.8707C115.635 42.7628 115.838 42.6165 116.011 42.4318C116.188 42.2443 116.325 42.0327 116.425 41.7969C116.524 41.5582 116.574 41.3097 116.574 41.0511C116.574 40.7102 116.491 40.3906 116.327 40.0923C116.165 39.794 115.94 39.5526 115.653 39.3679C115.369 39.1832 115.045 39.0909 114.682 39.0909Z" fill="black"/>
<path d="M119.972 64.2727V73H118.915V65.3807H118.864L116.733 66.7955V65.7216L118.915 64.2727H119.972ZM125.328 73.1193C124.686 73.1193 124.139 72.9446 123.688 72.5952C123.236 72.2429 122.891 71.733 122.652 71.0653C122.413 70.3949 122.294 69.5852 122.294 68.6364C122.294 67.6932 122.413 66.8878 122.652 66.2202C122.893 65.5497 123.24 65.0384 123.692 64.6861C124.146 64.331 124.692 64.1534 125.328 64.1534C125.964 64.1534 126.509 64.331 126.96 64.6861C127.415 65.0384 127.761 65.5497 128 66.2202C128.241 66.8878 128.362 67.6932 128.362 68.6364C128.362 69.5852 128.243 70.3949 128.004 71.0653C127.766 71.733 127.42 72.2429 126.969 72.5952C126.517 72.9446 125.97 73.1193 125.328 73.1193ZM125.328 72.1818C125.964 72.1818 126.459 71.875 126.811 71.2614C127.163 70.6477 127.339 69.7727 127.339 68.6364C127.339 67.8807 127.259 67.2372 127.097 66.706C126.938 66.1747 126.707 65.7699 126.406 65.4915C126.108 65.2131 125.749 65.0739 125.328 65.0739C124.697 65.0739 124.205 65.3849 123.849 66.0071C123.494 66.6264 123.317 67.5028 123.317 68.6364C123.317 69.392 123.396 70.0341 123.555 70.5625C123.714 71.0909 123.943 71.4929 124.241 71.7685C124.543 72.044 124.905 72.1818 125.328 72.1818Z" fill="black"/>
<path d="M9.85227 97.1193C9.28977 97.1193 8.78835 97.0227 8.34801 96.8295C7.91051 96.6364 7.5625 96.3679 7.30398 96.0241C7.0483 95.6776 6.90909 95.2756 6.88636 94.8182H7.96023C7.98295 95.0994 8.07955 95.3423 8.25 95.5469C8.42045 95.7486 8.64347 95.9048 8.91903 96.0156C9.1946 96.1264 9.5 96.1818 9.83523 96.1818C10.2102 96.1818 10.5426 96.1165 10.8324 95.9858C11.1222 95.8551 11.3494 95.6733 11.5142 95.4403C11.679 95.2074 11.7614 94.9375 11.7614 94.6307C11.7614 94.3097 11.6818 94.027 11.5227 93.7827C11.3636 93.5355 11.1307 93.3423 10.8239 93.2031C10.517 93.0639 10.142 92.9943 9.69886 92.9943H9V92.0568H9.69886C10.0455 92.0568 10.3494 91.9943 10.6108 91.8693C10.875 91.7443 11.081 91.5682 11.2287 91.3409C11.3793 91.1136 11.4545 90.8466 11.4545 90.5398C11.4545 90.2443 11.3892 89.9872 11.2585 89.7685C11.1278 89.5497 10.9432 89.3793 10.7045 89.2571C10.4688 89.1349 10.1903 89.0739 9.86932 89.0739C9.56818 89.0739 9.28409 89.1293 9.01705 89.2401C8.75284 89.348 8.53693 89.5057 8.36932 89.7131C8.2017 89.9176 8.1108 90.1648 8.09659 90.4545H7.07386C7.09091 89.9972 7.22869 89.5966 7.48722 89.2528C7.74574 88.9062 8.08381 88.6364 8.50142 88.4432C8.92188 88.25 9.38352 88.1534 9.88636 88.1534C10.4261 88.1534 10.8892 88.2628 11.2756 88.4815C11.6619 88.6974 11.9588 88.983 12.1662 89.3381C12.3736 89.6932 12.4773 90.0767 12.4773 90.4886C12.4773 90.9801 12.348 91.3991 12.0895 91.7457C11.8338 92.0923 11.4858 92.3324 11.0455 92.4659V92.5341C11.5966 92.625 12.027 92.8594 12.3366 93.2372C12.6463 93.6122 12.8011 94.0767 12.8011 94.6307C12.8011 95.1051 12.6719 95.5312 12.4134 95.9091C12.1577 96.2841 11.8082 96.5795 11.3651 96.7955C10.9219 97.0114 10.4176 97.1193 9.85227 97.1193Z" fill="black"/>
<path d="M23.9034 118V117.233L26.7841 114.08C27.1222 113.71 27.4006 113.389 27.6193 113.116C27.8381 112.841 28 112.582 28.1051 112.341C28.2131 112.097 28.267 111.841 28.267 111.574C28.267 111.267 28.1932 111.001 28.0455 110.777C27.9006 110.553 27.7017 110.379 27.4489 110.257C27.196 110.135 26.9119 110.074 26.5966 110.074C26.2614 110.074 25.9688 110.143 25.7188 110.283C25.4716 110.419 25.2798 110.611 25.1435 110.858C25.0099 111.105 24.9432 111.395 24.9432 111.727H23.9375C23.9375 111.216 24.0554 110.767 24.2912 110.381C24.527 109.994 24.848 109.693 25.2543 109.477C25.6634 109.261 26.1222 109.153 26.6307 109.153C27.142 109.153 27.5952 109.261 27.9901 109.477C28.3849 109.693 28.6946 109.984 28.919 110.351C29.1435 110.717 29.2557 111.125 29.2557 111.574C29.2557 111.895 29.1974 112.209 29.081 112.516C28.9673 112.82 28.7685 113.159 28.4844 113.534C28.2031 113.906 27.8125 114.361 27.3125 114.898L25.3523 116.994V117.062H29.4091V118H23.9034Z" fill="black"/>
<path d="M62.9716 120.273V129H61.9148V121.381H61.8636L59.733 122.795V121.722L61.9148 120.273H62.9716Z" fill="black"/>
<path d="M91.9716 112.273V121H90.9148V113.381H90.8636L88.733 114.795V113.722L90.9148 112.273H91.9716ZM94.4815 121V120.233L97.3622 117.08C97.7003 116.71 97.9787 116.389 98.1974 116.116C98.4162 115.841 98.5781 115.582 98.6832 115.341C98.7912 115.097 98.8452 114.841 98.8452 114.574C98.8452 114.267 98.7713 114.001 98.6236 113.777C98.4787 113.553 98.2798 113.379 98.027 113.257C97.7741 113.135 97.4901 113.074 97.1747 113.074C96.8395 113.074 96.5469 113.143 96.2969 113.283C96.0497 113.419 95.858 113.611 95.7216 113.858C95.5881 114.105 95.5213 114.395 95.5213 114.727H94.5156C94.5156 114.216 94.6335 113.767 94.8693 113.381C95.1051 112.994 95.4261 112.693 95.8324 112.477C96.2415 112.261 96.7003 112.153 97.2088 112.153C97.7202 112.153 98.1733 112.261 98.5682 112.477C98.9631 112.693 99.2727 112.984 99.4972 113.351C99.7216 113.717 99.8338 114.125 99.8338 114.574C99.8338 114.895 99.7756 115.209 99.6591 115.516C99.5455 115.82 99.3466 116.159 99.0625 116.534C98.7812 116.906 98.3906 117.361 97.8906 117.898L95.9304 119.994V120.062H99.9872V121H94.4815Z" fill="black"/>
<path d="M112.972 92.2727V101H111.915V93.3807H111.864L109.733 94.7955V93.7216L111.915 92.2727H112.972ZM118.55 92.2727V101H117.493V93.3807H117.442L115.311 94.7955V93.7216L117.493 92.2727H118.55Z" fill="black"/>
</svg>
