<svg width="130" height="136" viewBox="0 0 130 136" fill="none" xmlns="http://www.w3.org/2000/svg">
<path d="M0.698864 67.2102V66.3409L4.53409 60.2727H5.16477V61.6193H4.73864L1.84091 66.2045V66.2727H7.00568V67.2102H0.698864ZM4.80682 69V66.946V66.5412V60.2727H5.8125V69H4.80682Z" fill="black"/>
<path d="M11.6307 39.1193C11.1307 39.1193 10.6804 39.0199 10.2798 38.821C9.87926 38.6222 9.55824 38.3494 9.31676 38.0028C9.07528 37.6562 8.94318 37.2614 8.92045 36.8182H9.94318C9.98295 37.2131 10.1619 37.5398 10.4801 37.7983C10.8011 38.054 11.1847 38.1818 11.6307 38.1818C11.9886 38.1818 12.3068 38.098 12.5852 37.9304C12.8665 37.7628 13.0866 37.5327 13.2457 37.2401C13.4077 36.9446 13.4886 36.6108 13.4886 36.2386C13.4886 35.858 13.4048 35.5185 13.2372 35.2202C13.0724 34.919 12.8452 34.6818 12.5554 34.5085C12.2656 34.3352 11.9347 34.2472 11.5625 34.2443C11.2955 34.2415 11.0213 34.2827 10.7401 34.3679C10.4588 34.4503 10.2273 34.5568 10.0455 34.6875L9.05682 34.5682L9.58523 30.2727H14.1193V31.2102H10.4716L10.1648 33.7841H10.2159C10.3949 33.642 10.6193 33.5241 10.8892 33.4304C11.1591 33.3366 11.4403 33.2898 11.733 33.2898C12.267 33.2898 12.7429 33.4176 13.1605 33.6733C13.581 33.9261 13.9105 34.2727 14.1491 34.7131C14.3906 35.1534 14.5114 35.6562 14.5114 36.2216C14.5114 36.7784 14.3864 37.2756 14.1364 37.7131C13.8892 38.1477 13.5483 38.4915 13.1136 38.7443C12.679 38.9943 12.1847 39.1193 11.6307 39.1193Z" fill="#E51D1D"/>
<path d="M42.8011 16.1193C42.4432 16.1136 42.0852 16.0455 41.7273 15.9148C41.3693 15.7841 41.0426 15.5639 40.7472 15.2543C40.4517 14.9418 40.2145 14.5199 40.0355 13.9886C39.8565 13.4545 39.767 12.7841 39.767 11.9773C39.767 11.2045 39.8395 10.5199 39.9844 9.9233C40.1293 9.32386 40.3395 8.8196 40.6151 8.41051C40.8906 7.99858 41.223 7.68608 41.6122 7.47301C42.0043 7.25994 42.446 7.15341 42.9375 7.15341C43.4261 7.15341 43.8608 7.25142 44.2415 7.44744C44.625 7.64062 44.9375 7.91051 45.179 8.2571C45.4205 8.60369 45.5767 9.00284 45.6477 9.45455H44.608C44.5114 9.0625 44.3239 8.73722 44.0455 8.47869C43.767 8.22017 43.3977 8.09091 42.9375 8.09091C42.2614 8.09091 41.7287 8.38494 41.3395 8.97301C40.9531 9.56108 40.7585 10.3864 40.7557 11.4489H40.8239C40.983 11.2074 41.1719 11.0014 41.3906 10.831C41.6122 10.6577 41.8565 10.5241 42.1236 10.4304C42.3906 10.3366 42.6733 10.2898 42.9716 10.2898C43.4716 10.2898 43.929 10.4148 44.3438 10.6648C44.7585 10.9119 45.0909 11.2543 45.3409 11.6918C45.5909 12.1264 45.7159 12.625 45.7159 13.1875C45.7159 13.7273 45.5952 14.2216 45.3537 14.6705C45.1122 15.1165 44.7727 15.4716 44.3352 15.7358C43.9006 15.9972 43.3892 16.125 42.8011 16.1193ZM42.8011 15.1818C43.1591 15.1818 43.4801 15.0923 43.7642 14.9134C44.0511 14.7344 44.277 14.4943 44.4418 14.1932C44.6094 13.892 44.6932 13.5568 44.6932 13.1875C44.6932 12.8267 44.6122 12.4986 44.4503 12.2031C44.2912 11.9048 44.071 11.6676 43.7898 11.4915C43.5114 11.3153 43.1932 11.2273 42.8352 11.2273C42.5653 11.2273 42.3139 11.2812 42.081 11.3892C41.848 11.4943 41.6435 11.6392 41.4673 11.8239C41.294 12.0085 41.1577 12.2202 41.0582 12.4588C40.9588 12.6946 40.9091 12.9432 40.9091 13.2045C40.9091 13.5511 40.9901 13.875 41.152 14.1761C41.3168 14.4773 41.5412 14.7202 41.8253 14.9048C42.1122 15.0895 42.4375 15.1818 42.8011 15.1818Z" fill="black"/>
<path d="M71.1761 12L75.0795 4.27841V4.21023H70.5795V3.27273H76.1705V4.26136L72.2841 12H71.1761Z" fill="black"/>
<path d="M101.699 24.1193C101.114 24.1193 100.597 24.0156 100.148 23.8082C99.7017 23.598 99.3537 23.3097 99.1037 22.9432C98.8537 22.5739 98.7301 22.1534 98.733 21.6818C98.7301 21.3125 98.8026 20.9716 98.9503 20.6591C99.098 20.3437 99.2997 20.081 99.5554 19.8707C99.8139 19.6577 100.102 19.5227 100.42 19.4659V19.4148C100.003 19.3068 99.6705 19.0724 99.4233 18.7116C99.1761 18.348 99.054 17.9347 99.0568 17.4716C99.054 17.0284 99.1662 16.6321 99.3935 16.2827C99.6207 15.9332 99.9332 15.6577 100.331 15.456C100.732 15.2543 101.188 15.1534 101.699 15.1534C102.205 15.1534 102.656 15.2543 103.054 15.456C103.452 15.6577 103.764 15.9332 103.991 16.2827C104.222 16.6321 104.338 17.0284 104.341 17.4716C104.338 17.9347 104.212 18.348 103.962 18.7116C103.714 19.0724 103.386 19.3068 102.977 19.4148V19.4659C103.293 19.5227 103.577 19.6577 103.83 19.8707C104.082 20.081 104.284 20.3437 104.435 20.6591C104.585 20.9716 104.662 21.3125 104.665 21.6818C104.662 22.1534 104.534 22.5739 104.281 22.9432C104.031 23.3097 103.683 23.598 103.237 23.8082C102.794 24.0156 102.281 24.1193 101.699 24.1193ZM101.699 23.1818C102.094 23.1818 102.435 23.1179 102.722 22.9901C103.009 22.8622 103.23 22.6818 103.386 22.4489C103.543 22.2159 103.622 21.9432 103.625 21.6307C103.622 21.3011 103.537 21.0099 103.369 20.7571C103.202 20.5043 102.973 20.3054 102.683 20.1605C102.396 20.0156 102.068 19.9432 101.699 19.9432C101.327 19.9432 100.994 20.0156 100.702 20.1605C100.412 20.3054 100.183 20.5043 100.016 20.7571C99.8509 21.0099 99.7699 21.3011 99.7727 21.6307C99.7699 21.9432 99.8452 22.2159 99.9986 22.4489C100.155 22.6818 100.378 22.8622 100.668 22.9901C100.957 23.1179 101.301 23.1818 101.699 23.1818ZM101.699 19.0398C102.011 19.0398 102.288 18.9773 102.53 18.8523C102.774 18.7273 102.966 18.5526 103.105 18.3281C103.244 18.1037 103.315 17.8409 103.318 17.5398C103.315 17.2443 103.246 16.9872 103.109 16.7685C102.973 16.5469 102.784 16.3764 102.543 16.2571C102.301 16.1349 102.02 16.0739 101.699 16.0739C101.372 16.0739 101.087 16.1349 100.842 16.2571C100.598 16.3764 100.409 16.5469 100.276 16.7685C100.142 16.9872 100.077 17.2443 100.08 17.5398C100.077 17.8409 100.143 18.1037 100.28 18.3281C100.419 18.5526 100.611 18.7273 100.855 18.8523C101.099 18.9773 101.381 19.0398 101.699 19.0398Z" fill="black"/>
<path d="M117.682 42.1534C118.04 42.1562 118.398 42.2244 118.756 42.358C119.114 42.4915 119.44 42.7131 119.736 43.0227C120.031 43.3295 120.268 43.7486 120.447 44.2798C120.626 44.8111 120.716 45.4773 120.716 46.2784C120.716 47.054 120.642 47.7429 120.494 48.3452C120.349 48.9446 120.139 49.4503 119.864 49.8622C119.591 50.2741 119.259 50.5866 118.866 50.7997C118.477 51.0128 118.037 51.1193 117.545 51.1193C117.057 51.1193 116.621 51.0227 116.237 50.8295C115.857 50.6335 115.544 50.3622 115.3 50.0156C115.058 49.6662 114.903 49.2614 114.835 48.8011H115.875C115.969 49.2017 116.155 49.5327 116.433 49.794C116.714 50.0526 117.085 50.1818 117.545 50.1818C118.219 50.1818 118.75 49.8878 119.139 49.2997C119.531 48.7116 119.727 47.8807 119.727 46.8068H119.659C119.5 47.0455 119.311 47.2514 119.092 47.4247C118.874 47.598 118.631 47.7315 118.364 47.8253C118.097 47.919 117.813 47.9659 117.511 47.9659C117.011 47.9659 116.553 47.8423 116.135 47.5952C115.72 47.3452 115.388 47.0028 115.138 46.5682C114.891 46.1307 114.767 45.6307 114.767 45.0682C114.767 44.5341 114.886 44.0455 115.125 43.6023C115.366 43.1562 115.705 42.8011 116.139 42.5369C116.577 42.2727 117.091 42.1449 117.682 42.1534ZM117.682 43.0909C117.324 43.0909 117.001 43.1804 116.714 43.3594C116.43 43.5355 116.205 43.7741 116.037 44.0753C115.872 44.3736 115.79 44.7045 115.79 45.0682C115.79 45.4318 115.869 45.7628 116.028 46.0611C116.19 46.3565 116.411 46.5923 116.689 46.7685C116.97 46.9418 117.29 47.0284 117.648 47.0284C117.918 47.0284 118.169 46.9759 118.402 46.8707C118.635 46.7628 118.838 46.6165 119.011 46.4318C119.188 46.2443 119.325 46.0327 119.425 45.7969C119.524 45.5582 119.574 45.3097 119.574 45.0511C119.574 44.7102 119.491 44.3906 119.327 44.0923C119.165 43.794 118.94 43.5526 118.653 43.3679C118.369 43.1832 118.045 43.0909 117.682 43.0909Z" fill="black"/>
<path d="M119.972 72.2727V81H118.915V73.3807H118.864L116.733 74.7955V73.7216L118.915 72.2727H119.972ZM125.328 81.1193C124.686 81.1193 124.139 80.9446 123.688 80.5952C123.236 80.2429 122.891 79.733 122.652 79.0653C122.413 78.3949 122.294 77.5852 122.294 76.6364C122.294 75.6932 122.413 74.8878 122.652 74.2202C122.893 73.5497 123.24 73.0384 123.692 72.6861C124.146 72.331 124.692 72.1534 125.328 72.1534C125.964 72.1534 126.509 72.331 126.96 72.6861C127.415 73.0384 127.761 73.5497 128 74.2202C128.241 74.8878 128.362 75.6932 128.362 76.6364C128.362 77.5852 128.243 78.3949 128.004 79.0653C127.766 79.733 127.42 80.2429 126.969 80.5952C126.517 80.9446 125.97 81.1193 125.328 81.1193ZM125.328 80.1818C125.964 80.1818 126.459 79.875 126.811 79.2614C127.163 78.6477 127.339 77.7727 127.339 76.6364C127.339 75.8807 127.259 75.2372 127.097 74.706C126.938 74.1747 126.707 73.7699 126.406 73.4915C126.108 73.2131 125.749 73.0739 125.328 73.0739C124.697 73.0739 124.205 73.3849 123.849 74.0071C123.494 74.6264 123.317 75.5028 123.317 76.6364C123.317 77.392 123.396 78.0341 123.555 78.5625C123.714 79.0909 123.943 79.4929 124.241 79.7685C124.543 80.044 124.905 80.1818 125.328 80.1818Z" fill="black"/>
<path d="M7.85227 101.119C7.28977 101.119 6.78835 101.023 6.34801 100.83C5.91051 100.636 5.5625 100.368 5.30398 100.024C5.0483 99.6776 4.90909 99.2756 4.88636 98.8182H5.96023C5.98295 99.0994 6.07955 99.3423 6.25 99.5469C6.42045 99.7486 6.64347 99.9048 6.91903 100.016C7.1946 100.126 7.5 100.182 7.83523 100.182C8.21023 100.182 8.54261 100.116 8.83239 99.9858C9.12216 99.8551 9.34943 99.6733 9.5142 99.4403C9.67898 99.2074 9.76136 98.9375 9.76136 98.6307C9.76136 98.3097 9.68182 98.027 9.52273 97.7827C9.36364 97.5355 9.13068 97.3423 8.82386 97.2031C8.51705 97.0639 8.14205 96.9943 7.69886 96.9943H7V96.0568H7.69886C8.04545 96.0568 8.34943 95.9943 8.6108 95.8693C8.875 95.7443 9.08097 95.5682 9.22869 95.3409C9.37926 95.1136 9.45455 94.8466 9.45455 94.5398C9.45455 94.2443 9.3892 93.9872 9.25852 93.7685C9.12784 93.5497 8.94318 93.3793 8.70455 93.2571C8.46875 93.1349 8.19034 93.0739 7.86932 93.0739C7.56818 93.0739 7.28409 93.1293 7.01705 93.2401C6.75284 93.348 6.53693 93.5057 6.36932 93.7131C6.2017 93.9176 6.1108 94.1648 6.09659 94.4545H5.07386C5.09091 93.9972 5.22869 93.5966 5.48722 93.2528C5.74574 92.9062 6.08381 92.6364 6.50142 92.4432C6.92188 92.25 7.38352 92.1534 7.88636 92.1534C8.42614 92.1534 8.8892 92.2628 9.27557 92.4815C9.66193 92.6974 9.95881 92.983 10.1662 93.3381C10.3736 93.6932 10.4773 94.0767 10.4773 94.4886C10.4773 94.9801 10.348 95.3991 10.0895 95.7457C9.83381 96.0923 9.4858 96.3324 9.04545 96.4659V96.5341C9.59659 96.625 10.027 96.8594 10.3366 97.2372C10.6463 97.6122 10.8011 98.0767 10.8011 98.6307C10.8011 99.1051 10.6719 99.5312 10.4134 99.9091C10.1577 100.284 9.80824 100.58 9.36506 100.795C8.92188 101.011 8.41761 101.119 7.85227 101.119Z" fill="black"/>
<path d="M29.9034 125V124.233L32.7841 121.08C33.1222 120.71 33.4006 120.389 33.6193 120.116C33.8381 119.841 34 119.582 34.1051 119.341C34.2131 119.097 34.267 118.841 34.267 118.574C34.267 118.267 34.1932 118.001 34.0455 117.777C33.9006 117.553 33.7017 117.379 33.4489 117.257C33.196 117.135 32.9119 117.074 32.5966 117.074C32.2614 117.074 31.9688 117.143 31.7188 117.283C31.4716 117.419 31.2798 117.611 31.1435 117.858C31.0099 118.105 30.9432 118.395 30.9432 118.727H29.9375C29.9375 118.216 30.0554 117.767 30.2912 117.381C30.527 116.994 30.848 116.693 31.2543 116.477C31.6634 116.261 32.1222 116.153 32.6307 116.153C33.142 116.153 33.5952 116.261 33.9901 116.477C34.3849 116.693 34.6946 116.984 34.919 117.351C35.1435 117.717 35.2557 118.125 35.2557 118.574C35.2557 118.895 35.1974 119.209 35.081 119.516C34.9673 119.82 34.7685 120.159 34.4844 120.534C34.2031 120.906 33.8125 121.361 33.3125 121.898L31.3523 123.994V124.062H35.4091V125H29.9034Z" fill="black"/>
<path d="M63.9716 124.273V133H62.9148V125.381H62.8636L60.733 126.795V125.722L62.9148 124.273H63.9716Z" fill="black"/>
<path d="M82.9716 117.273V126H81.9148V118.381H81.8636L79.733 119.795V118.722L81.9148 117.273H82.9716ZM85.4815 126V125.233L88.3622 122.08C88.7003 121.71 88.9787 121.389 89.1974 121.116C89.4162 120.841 89.5781 120.582 89.6832 120.341C89.7912 120.097 89.8452 119.841 89.8452 119.574C89.8452 119.267 89.7713 119.001 89.6236 118.777C89.4787 118.553 89.2798 118.379 89.027 118.257C88.7741 118.135 88.4901 118.074 88.1747 118.074C87.8395 118.074 87.5469 118.143 87.2969 118.283C87.0497 118.419 86.858 118.611 86.7216 118.858C86.5881 119.105 86.5213 119.395 86.5213 119.727H85.5156C85.5156 119.216 85.6335 118.767 85.8693 118.381C86.1051 117.994 86.4261 117.693 86.8324 117.477C87.2415 117.261 87.7003 117.153 88.2088 117.153C88.7202 117.153 89.1733 117.261 89.5682 117.477C89.9631 117.693 90.2727 117.984 90.4972 118.351C90.7216 118.717 90.8338 119.125 90.8338 119.574C90.8338 119.895 90.7756 120.209 90.6591 120.516C90.5455 120.82 90.3466 121.159 90.0625 121.534C89.7812 121.906 89.3906 122.361 88.8906 122.898L86.9304 124.994V125.062H90.9872V126H85.4815Z" fill="black"/>
<path d="M111.972 101.273V110H110.915V102.381H110.864L108.733 103.795V102.722L110.915 101.273H111.972ZM117.55 101.273V110H116.493V102.381H116.442L114.311 103.795V102.722L116.493 101.273H117.55Z" fill="black"/>
</svg>
