<svg width="12" height="12" viewBox="0 0 12 12" fill="none" xmlns="http://www.w3.org/2000/svg">
<path d="M5.99997 11.1428C5.51798 11.1428 5.12725 10.7521 5.12725 10.2701V1.72984C5.12725 1.24785 5.51798 0.857117 5.99997 0.857117V0.857117C6.48197 0.857117 6.8727 1.24785 6.8727 1.72984V10.2701C6.8727 10.7521 6.48197 11.1428 5.99997 11.1428V11.1428ZM1.72984 6.8727C1.24785 6.8727 0.857117 6.48197 0.857117 5.99997V5.99997C0.857117 5.51798 1.24785 5.12725 1.72984 5.12725H10.2701C10.7521 5.12725 11.1428 5.51798 11.1428 5.99997V5.99997C11.1428 6.48197 10.7521 6.8727 10.2701 6.8727H1.72984Z" fill="white"/>
</svg>
